# xmcd
#
# Track frame offsets:
#	150
#	9969
#	36956
#	58974
#	78658
#	103187
#	125387
#	142164
#	162234
#	183616
#	202617
#	224899
#	241027
#
# Disc length: 3527 seconds
#
# Revision: 1
# Processed by: cddbd v1.5.2PL0 Copyright (c) Steve Scherf et al.
# Submitted via: EZCDAudioConverter 8.0.2.1
#
DISCID=bc0dc50d
DTITLE=Various Artist - Những Bài Ca Thợ Mỏ
DYEAR=1998
DGENRE=Contemporary Pop
TTITLE0=Lời giới thiêu
TTITLE1=Tình yêu vùng than
TTITLE2=Đuognừ đi lên mỏ hôm nay
TTITLE3=Những ngôi sao ca đêm
TTITLE4=Tình ca người thợ mỏ
TTITLE5=Đất mỏ quê ta
TTITLE6=Đất mỏ anh hùng
TTITLE7=Hạ Long biển nhớ
TTITLE8=Đỉnh gió Na Dương
TTITLE9=Tình ca từ đất mỏ Mông Dương
TTITLE10=Trái tim đỏ trên đất mỏ Vàng Danh
TTITLE11=Xe đêm trên công trường
TTITLE12=Tôi là người thợ lò
EXTD=
EXTT0=
EXTT1=
EXTT2=
EXTT3=
EXTT4=
EXTT5=
EXTT6=
EXTT7=
EXTT8=
EXTT9=
EXTT10=
EXTT11=
EXTT12=
PLAYORDER=
